<svg width="303" height="20" viewBox="0 0 303 20" fill="none" xmlns="http://www.w3.org/2000/svg">
<line x1="1" y1="9.6001" x2="133" y2="9.60009" stroke="url(#paint0_linear_151_1811)" stroke-linecap="round"/>
<path d="M148.14 8.5521C149.1 8.5521 149.863 8.68543 150.428 8.9521C151.004 9.21876 151.415 9.6561 151.66 10.2641C151.916 10.8721 152.044 11.6774 152.044 12.6801C152.044 13.6828 151.916 14.4881 151.66 15.0961C151.415 15.6934 151.004 16.1308 150.428 16.4081C149.863 16.6748 149.1 16.8081 148.14 16.8081C147.201 16.8081 146.444 16.6748 145.868 16.4081C145.303 16.1308 144.892 15.6934 144.636 15.0961C144.38 14.4881 144.252 13.6828 144.252 12.6801C144.252 11.6774 144.38 10.8721 144.636 10.2641C144.892 9.6561 145.303 9.21876 145.868 8.9521C146.444 8.68543 147.201 8.5521 148.14 8.5521ZM148.14 10.0241C147.671 10.0241 147.297 10.1041 147.02 10.2641C146.753 10.4134 146.561 10.6801 146.444 11.0641C146.327 11.4481 146.268 11.9868 146.268 12.6801C146.268 13.3734 146.327 13.9121 146.444 14.2961C146.561 14.6801 146.753 14.9468 147.02 15.0961C147.297 15.2454 147.671 15.3201 148.14 15.3201C148.62 15.3201 148.999 15.2454 149.276 15.0961C149.553 14.9468 149.745 14.6801 149.852 14.2961C149.969 13.9121 150.028 13.3734 150.028 12.6801C150.028 11.9868 149.969 11.4481 149.852 11.0641C149.745 10.6801 149.553 10.4134 149.276 10.2641C148.999 10.1041 148.62 10.0241 148.14 10.0241ZM155.373 8.7441L155.629 10.2801L155.805 10.5041V16.6001H153.869V8.7441H155.373ZM159.213 8.5521L159.021 10.3441H158.461C158.045 10.3441 157.624 10.4134 157.197 10.5521C156.771 10.6908 156.237 10.8988 155.597 11.1761L155.469 10.0401C156.024 9.57076 156.589 9.2081 157.165 8.9521C157.741 8.68543 158.296 8.5521 158.829 8.5521H159.213Z" fill="#4F4E4E"/>
<line x1="0.5" y1="-0.5" x2="132.5" y2="-0.5" transform="matrix(-1 -8.74228e-08 -8.74228e-08 1 302.5 10.1001)" stroke="url(#paint1_linear_151_1811)" stroke-linecap="round"/>
<defs>
<linearGradient id="paint0_linear_151_1811" x1="-17.455" y1="10.1001" x2="233.25" y2="10.1" gradientUnits="userSpaceOnUse">
<stop stop-color="#4F4E4E" stop-opacity="0"/>
<stop offset="1" stop-color="#4F4E4E"/>
</linearGradient>
<linearGradient id="paint1_linear_151_1811" x1="-17.955" y1="1.2415e-06" x2="232.75" y2="-2.94225e-05" gradientUnits="userSpaceOnUse">
<stop stop-color="#4F4E4E" stop-opacity="0"/>
<stop offset="1" stop-color="#4F4E4E"/>
</linearGradient>
</defs>
</svg>
