<svg width="54" height="54" viewBox="0 0 54 54" fill="none" xmlns="http://www.w3.org/2000/svg">
<path d="M26.8347 4.78174C14.6835 4.78174 4.78174 14.6835 4.78174 26.8347C4.78174 38.9858 14.6835 48.8876 26.8347 48.8876C38.9858 48.8876 48.8876 38.9858 48.8876 26.8347C48.8876 14.6835 38.9858 4.78174 26.8347 4.78174ZM37.376 21.7625L24.872 34.2665C24.5632 34.5752 24.1442 34.7517 23.7032 34.7517C23.2621 34.7517 22.8431 34.5752 22.5343 34.2665L16.2934 28.0255C15.6538 27.386 15.6538 26.3275 16.2934 25.6879C16.9329 25.0484 17.9914 25.0484 18.631 25.6879L23.7032 30.7601L35.0384 19.4249C35.6779 18.7854 36.7364 18.7854 37.376 19.4249C38.0155 20.0644 38.0155 21.1009 37.376 21.7625Z" fill="#23A26D"/>
</svg>
